<svg xmlns="http://www.w3.org/2000/svg" viewBox="0 0 286.06 261.74"><defs><style>.cls-1{fill:#221f1f;}.cls-2{fill:#e33b8c;}</style></defs><g id="Capa_2" data-name="Capa 2"><g id="Capa_1-2" data-name="Capa 1"><path class="cls-1" d="M102.4,261.74,48.53,191.43v70.31H0V0H48.53V163.92l53.11-55H160.1L93.23,178.06l72.6,83.68Z"/><path class="cls-2" d="M281.63,76.94c-27.95,15-42.84,29.84-57.78,57.79a8.35,8.35,0,0,1-14.74,0c-14.94-27.95-29.83-42.84-57.78-57.79a8.34,8.34,0,0,1,0-14.73c27.95-14.94,42.84-29.83,57.78-57.78a8.34,8.34,0,0,1,14.74,0c14.94,28,29.83,42.84,57.78,57.78A8.34,8.34,0,0,1,281.63,76.94Z"/></g></g></svg>